<svg xmlns="http://www.w3.org/2000/svg" viewBox="0 0 32 32" fill="none">
  <!-- Peregrine Falcon favicon - simplified -->
  <circle cx="16" cy="16" r="15" fill="#0c0f1a"/>
  <path d="M16 5 C14.5 5, 12.5 7, 12 9 L10 13 C8.5 14.5, 9.5 16, 11 15 L13 13.5 L12 18 L11 22 C10 24, 11 25, 13 23 L14.5 20 L16 27 L17.5 20 L19 23 C21 25, 22 24, 21 22 L20 18 L19 13.5 L21 15 C22.5 16, 23.5 14.5, 22 13 L20 9 C19.5 7, 17.5 5, 16 5Z"
    fill="#f97316"/>
  <path d="M16 5 C14.5 5, 13 6.5, 12.5 8 L14 8.5 C14.5 7, 15.5 5.8, 16 5.8 C16.5 5.8, 17.5 7, 18 8.5 L19.5 8 C19 6.5, 17.5 5, 16 5Z"
    fill="#1e293b"/>
  <circle cx="14.5" cy="8" r="0.8" fill="#fbbf24"/>
  <circle cx="17.5" cy="8" r="0.8" fill="#fbbf24"/>
</svg>
