<svg xmlns="http://www.w3.org/2000/svg" viewBox="0 0 420 50" width="420" height="50">
  <defs>
    <linearGradient id="ig" x1="0%" y1="0%" x2="100%" y2="100%">
      <stop offset="0%" style="stop-color:#fb7185"/>
      <stop offset="100%" style="stop-color:#e11d48"/>
    </linearGradient>
  </defs>

  <g transform="translate(22, 25)">
    <path d="M-18 8 L-10 -6 L-5 1 L0 -12 L6 -2 L12 -8 L18 8 Z" 
          fill="url(#ig)" opacity="0.25"/>
    <path d="
      M-10 -14 L-10 14 L3 14 C10 14, 14 10, 14 6
      C14 3, 11 0, 7 -1 C10 -2, 12 -4, 12 -7
      C12 -11, 9 -14, 3 -14 Z
      M-3 -8 L3 -8 C5 -8, 7 -7, 7 -5 C7 -4, 5 -3, 3 -3 L-3 -3 Z
      M-3 3 L4 3 C7 3, 8 4, 8 6 C8 8, 7 9, 4 9 L-3 9 Z
    " fill="url(#ig)" fill-rule="evenodd"/>
    <path d="M15 -12 L18 -9 L15 -6 L12 -9 Z" fill="#fb7185" opacity="0.8"/>
  </g>

  <text x="48" y="33" font-family="'Inter', 'SF Pro Display', system-ui, sans-serif" font-size="30" font-weight="800" letter-spacing="-0.5"><tspan fill="#f1f0f5">Biome</tspan><tspan fill="#e11d48">bounty</tspan></text>
</svg>
